<?xml version="1.0" standalone="no"?>
<!DOCTYPE svg PUBLIC "-//W3C//DTD SVG 20010904//EN" "http://www.w3.org/TR/2001/REC-SVG-20010904/DTD/svg10.dtd">
<svg version="1.0" xmlns="http://www.w3.org/2000/svg"
    width="14" height="82" viewBox="0 0 576.000000 250.000000"
    preserveAspectRatio="xMidYMid meet">

    <g transform="translate(0.000000,250.000000) scale(0.100000,-0.100000)"
        fill="#000000" stroke="none">
        <path
            d="M0 1250 l0 -1250 2880 0 2880 0 0 1250 0 1250 -2880 0 -2880 0 0
-1250z m807 966 c77 -20 173 -60 251 -103 59 -33 70 -36 150 -36 48 0 65 -2
37 -4 -102 -7 -102 -5 -22 -84 l72 -70 28 33 c15 18 27 42 27 54 0 24 -24 54
-42 54 -6 0 -8 3 -5 6 4 4 18 -1 32 -10 35 -23 33 -66 -6 -110 l-31 -36 25
-52 c28 -59 41 -115 28 -122 -5 -3 -14 20 -20 52 -6 31 -19 69 -29 84 l-17 26
-55 -32 c-133 -78 -325 -138 -503 -158 l-107 -11 -28 -46 c-71 -117 -101 -259
-72 -346 47 -142 237 -189 414 -102 155 77 296 262 296 390 0 111 -111 160
-230 100 -76 -38 -173 -137 -193 -198 -17 -49 -14 -76 6 -56 20 20 56 13 63
-13 9 -36 -12 -66 -44 -66 -38 0 -52 17 -52 65 0 134 178 305 317 305 106 0
143 -43 143 -162 0 -100 -37 -178 -124 -263 -138 -133 -333 -189 -482 -138
-69 23 -155 110 -179 182 -28 85 -18 189 28 286 20 42 37 79 37 81 0 2 -9 4
-19 4 -10 0 -48 9 -83 20 -137 42 -211 122 -211 229 0 32 7 69 16 86 40 77
163 154 277 174 72 13 233 6 307 -13z m3346 -17 c39 -20 77 -62 77 -85 0 -53
-89 -84 -239 -84 -98 0 -115 -11 -82 -51 16 -21 30 -23 144 -29 155 -7 170
-15 147 -83 -12 -34 -24 -47 -60 -65 -41 -21 -54 -23 -145 -18 -69 3 -142 16
-235 40 -74 20 -152 36 -172 36 -37 0 -68 -20 -68 -45 0 -18 17 -22 130 -30
112 -8 130 -16 130 -54 0 -39 -22 -54 -83 -56 -29 -2 -40 -1 -25 2 38 6 55 29
31 42 -16 8 -182 31 -228 31 -29 0 -65 46 -65 84 0 81 70 89 288 30 220 -60
261 -67 312 -54 56 14 110 49 110 72 0 19 -13 22 -168 38 -136 13 -182 38
-182 99 0 36 35 44 154 38 110 -6 181 5 181 28 0 6 -24 23 -52 38 -56 30 -68
57 -35 76 23 14 108 14 135 0z m-2064 -451 c-7 -12 -26 -45 -44 -73 -96 -151
-135 -216 -126 -210 20 12 11 -5 -28 -55 -98 -124 -129 -221 -71 -228 83 -9
290 236 290 343 0 73 -51 70 -130 -7 -52 -51 -53 -43 -1 15 58 65 123 71 162
16 18 -25 21 -41 17 -93 -3 -54 -9 -71 -38 -109 -69 -89 -224 -181 -297 -175
-33 3 -39 7 -43 33 -5 27 -18 9 -141 -195 l-136 -225 -41 -3 c-23 -2 -42 0
-42 4 0 3 66 115 147 247 80 133 146 247 146 254 0 6 15 30 32 51 17 22 85
128 151 236 l119 196 43 0 c41 0 42 -1 31 -22z m779 3 c22 -13 10 -62 -21 -85
-21 -16 -32 -18 -45 -10 -29 19 -26 49 8 78 34 28 39 30 58 17z m1506 -43 c-1
-24 -2 -51 -3 -60 -1 -25 -36 -41 -61 -28 -26 14 -26 56 0 70 16 9 18 8 14 -5
-4 -8 -10 -15 -15 -15 -15 0 -10 -37 5 -43 21 -8 38 18 42 63 2 34 10 60 18
60 1 0 1 -19 0 -42z m346 24 c0 -5 -12 -19 -26 -33 -72 -65 -105 -142 -66
-152 12 -4 11 -5 -6 -6 -40 -2 -44 37 -9 89 50 76 107 129 107 102z m-85 -12
c-3 -5 -13 -10 -21 -10 -8 0 -14 5 -14 10 0 6 9 10 21 10 11 0 17 -4 14 -10z
m237 -114 c-51 -99 -57 -115 -43 -124 12 -9 8 -10 -19 -5 -50 8 -73 22 -38 23
25 0 33 10 73 90 44 87 44 90 23 91 -18 0 -15 4 17 19 22 10 41 19 43 19 2 1
-23 -50 -56 -113z m-352 84 c0 -19 -27 -40 -52 -40 -7 0 -2 6 11 13 30 15 39
37 15 37 -26 0 -74 -50 -74 -76 0 -17 7 -24 28 -27 l27 -4 -27 -2 c-17 0 -32
7 -42 20 -13 19 -13 24 1 46 32 48 113 72 113 33z m561 -21 c58 -58 -41 -229
-132 -229 -30 0 -57 24 -39 35 5 3 10 -1 10 -9 0 -18 32 -21 60 -6 20 11 61
63 64 83 1 7 8 22 15 35 6 13 11 40 9 60 -3 32 -7 37 -29 40 -49 6 -91 -82
-57 -116 9 -9 9 -12 0 -12 -19 0 -45 48 -38 73 15 63 94 89 137 46z m-1021 -4
c16 -20 -2 -65 -26 -65 -9 0 -14 -7 -12 -17 2 -12 24 -23 73 -36 151 -39 261
-98 363 -192 142 -131 237 -319 272 -538 11 -68 16 -78 36 -83 26 -7 33 -41
12 -62 -17 -17 -1719 -17 -1736 0 -20 20 -14 48 13 58 21 8 25 16 25 53 0 56
40 215 73 289 34 76 103 181 162 246 102 113 292 211 445 230 45 6 56 11 58
28 2 11 -4 27 -13 34 -15 13 -21 51 -8 63 3 4 61 7 128 7 98 0 125 -3 135 -15z
m513 -7 c-19 -22 -43 -61 -43 -72 0 -2 10 -7 23 -9 19 -4 18 -4 -5 -6 -24 -1
-28 3 -28 26 0 16 11 39 27 55 32 33 56 38 26 6z m697 -38 c11 -11 20 -32 20
-47 -1 -63 -73 -166 -126 -179 -35 -9 -74 3 -74 24 1 16 1 16 11 0 27 -47 88
-7 135 86 33 67 30 120 -7 124 -61 7 -93 -98 -39 -125 32 -16 10 -17 -25 -1
-14 6 -28 22 -31 35 -7 28 12 80 35 93 28 16 80 11 101 -10z m163 -37 l39 -6
-53 -53 c-37 -37 -48 -54 -36 -54 9 0 17 -5 17 -10 0 -6 -10 -8 -22 -5 -19 5
-28 -2 -50 -37 -16 -23 -28 -48 -28 -55 0 -7 -7 -13 -15 -13 -24 0 -17 22 21
70 l36 45 -24 6 c-21 6 -20 7 7 8 22 1 42 13 70 41 l39 40 -32 6 c-17 4 -37
13 -44 22 -11 13 -10 15 12 8 14 -4 42 -10 63 -13z m-3829 -9 c9 -8 16 -23 16
-32 1 -11 6 -8 16 11 13 23 21 27 59 27 l44 0 -70 -116 c-119 -197 -146 -262
-118 -279 21 -13 56 5 108 57 29 29 49 44 43 33 -11 -22 -54 -63 -92 -88 -65
-44 -125 1 -117 88 l4 49 -31 -39 c-76 -98 -117 -124 -171 -111 -60 15 -83
122 -44 203 35 72 146 158 254 195 63 22 80 22 99 2z m808 -1 c24 -22 24 -92
-2 -145 -11 -23 -20 -44 -20 -47 0 -14 54 50 79 93 35 62 76 102 114 111 24 6
27 4 27 -17 0 -28 -22 -51 -101 -102 -63 -41 -79 -77 -56 -125 17 -36 50 -38
100 -6 l42 26 -30 -26 c-37 -31 -59 -39 -91 -31 -29 8 -48 49 -39 86 6 24 5
24 -30 -10 -20 -19 -60 -72 -87 -117 l-51 -83 -44 0 c-23 0 -43 2 -43 5 0 2
32 55 71 117 121 192 158 278 119 278 -5 0 -29 -16 -52 -36 l-43 -37 42 42
c46 45 67 50 95 24z m314 -145 c-125 -207 -135 -239 -73 -251 16 -3 13 -5 -9
-6 -50 -2 -79 28 -78 81 0 23 7 57 14 73 7 17 13 33 12 37 -1 5 13 27 31 51
17 24 48 71 67 105 l35 62 47 0 46 0 -92 -152z m-484 23 c-15 -21 -29 -37 -31
-35 -4 4 47 74 54 74 3 0 -8 -18 -23 -39z m607 -98 c-51 -69 -127 -151 -149
-163 -8 -5 14 22 50 59 36 37 81 91 100 119 19 28 36 49 39 47 2 -3 -16 -30
-40 -62z m-822 -679 c-3 -3 -12 -4 -19 -1 -8 3 -5 6 6 6 11 1 17 -2 13 -5z
m44 -25 c8 -17 7 -31 -6 -65 -9 -24 -13 -49 -9 -56 5 -10 4 -10 -6 -1 -11 10
-11 22 0 67 7 29 10 59 6 65 -4 6 -5 11 -2 11 3 0 10 -9 17 -21z m-151 -3 c0
-2 -8 -10 -17 -17 -16 -13 -17 -12 -4 4 13 16 21 21 21 13z m592 -33 c25 -23
22 -57 -8 -90 l-26 -28 21 29 c27 37 27 71 -1 90 -12 9 -18 16 -14 16 5 0 18
-7 28 -17z m-632 -7 c0 -2 -8 -10 -17 -17 -16 -13 -17 -12 -4 4 13 16 21 21
21 13z m468 -33 c-21 -21 -60 -81 -88 -133 -51 -93 -96 -151 -135 -172 -15 -8
-13 -3 8 22 16 18 40 56 54 84 41 81 99 161 144 200 55 47 63 46 17 -1z m-144
9 c-26 -21 -73 -90 -108 -159 -14 -29 -39 -67 -55 -86 -33 -37 -125 -91 -144
-84 -7 3 -5 6 5 6 31 2 98 72 164 172 58 87 132 169 152 169 4 0 -2 -8 -14
-18z m-361 -27 c-3 -9 -8 -14 -10 -11 -3 3 -2 9 2 15 9 16 15 13 8 -4z m297 2
c0 -2 -10 -12 -22 -23 l-23 -19 19 23 c18 21 26 27 26 19z m325 -67 c-3 -5
-12 -10 -18 -10 -7 0 -6 4 3 10 19 12 23 12 15 0z m-615 -35 c14 -19 14 -19
-2 -6 -10 7 -18 18 -18 24 0 6 1 8 3 6 1 -2 9 -13 17 -24z m680 16 c0 -12 -29
-35 -36 -28 -11 10 5 37 21 37 8 0 15 -4 15 -9z m1030 -5 c0 -18 -16 -29 -30
-21 -13 8 -1 35 16 35 8 0 14 -6 14 -14z m-625 -40 c-15 -20 -30 -36 -32 -36
-3 0 -1 6 4 13 5 6 17 25 27 40 10 16 20 26 23 24 3 -3 -7 -22 -22 -41z m-602
-61 c-47 -50 -64 -92 -42 -106 8 -5 9 -9 3 -9 -30 0 -45 52 -26 87 13 24 79
73 98 73 6 0 -9 -20 -33 -45z m87 26 c0 -18 -65 -59 -77 -48 -2 3 5 8 17 12
11 4 28 17 36 31 20 29 24 30 24 5z m39 -46 c-24 -38 -39 -72 -35 -81 4 -10 1
-14 -6 -12 -7 3 -14 16 -16 30 -4 34 55 128 80 128 16 0 12 -10 -23 -65z m161
35 c0 -27 -68 -130 -85 -130 -21 0 -20 1 25 72 22 35 40 69 40 76 0 7 5 10 10
7 6 -3 10 -15 10 -25z m90 -2 c0 -31 -62 -127 -83 -128 -16 0 -15 5 8 43 15
23 34 58 43 79 18 38 32 41 32 6z m50 29 c0 -2 -10 -12 -22 -23 l-23 -19 19
23 c18 21 26 27 26 19z m50 -24 c0 -9 -13 -39 -30 -68 -16 -28 -28 -55 -25
-59 3 -3 -3 1 -13 9 -16 15 -16 18 7 58 13 23 29 52 35 64 12 23 26 21 26 -4z
m241 2 c-16 -14 -40 -42 -52 -62 -19 -30 -20 -39 -10 -55 10 -16 10 -19 -1
-16 -7 3 -17 17 -23 32 -13 37 9 74 60 103 53 30 64 29 26 -2z m69 4 c0 -13
-11 -25 -35 -35 -48 -20 -56 -17 -17 6 18 11 35 27 38 35 8 21 14 19 14 -6z
m95 -21 c-9 -38 -64 -118 -82 -118 -18 0 -18 2 27 75 22 36 40 70 40 76 0 5 5
7 11 4 6 -4 7 -19 4 -37z m45 9 c-19 -18 -37 -32 -39 -31 -9 7 42 64 57 64 12
0 7 -9 -18 -33z m69 -32 c-25 -39 -39 -71 -35 -81 4 -10 1 -14 -6 -12 -7 3
-14 16 -16 30 -4 33 55 128 79 128 15 0 12 -11 -22 -65z m101 56 c0 -6 -10
-27 -22 -48 -21 -35 -23 -36 -26 -15 -2 13 4 34 12 48 16 24 36 32 36 15z
m100 2 c0 -5 -16 -33 -35 -63 -19 -30 -35 -62 -35 -73 0 -10 -5 -15 -11 -12
-17 11 -5 68 25 113 25 37 56 56 56 35z m97 -20 c-39 -42 -61 -101 -45 -120
11 -14 11 -15 -2 -11 -8 2 -20 19 -27 36 -13 32 -12 33 32 77 47 48 87 64 42
18z m151 -3 c-17 -17 -28 -33 -25 -36 10 -10 79 29 86 49 6 15 10 17 15 8 5
-7 1 -20 -8 -30 -17 -19 -84 -43 -97 -35 -13 8 -31 -36 -26 -62 3 -19 1 -22
-8 -14 -38 31 -15 92 49 131 44 27 49 23 14 -11z m-828 -73 c0 -16 -50 -57
-69 -57 -17 0 -16 3 10 29 23 23 29 39 29 73 l1 43 14 -40 c8 -22 15 -44 15
-48z m724 42 c-19 -21 -34 -25 -34 -8 0 15 44 50 49 38 1 -6 -5 -19 -15 -30z
m-794 -3 c0 -8 -14 -21 -31 -30 -28 -14 -30 -14 -27 2 2 9 14 22 28 29 31 16
30 16 30 -1z m-1085 -27 c0 -8 -7 -14 -15 -14 -8 0 -18 -4 -22 -10 -5 -6 -8
-4 -8 6 0 19 21 40 35 36 5 -2 10 -10 10 -18z m1315 -2 c0 -2 -12 -14 -27 -28
l-28 -24 24 28 c23 25 31 32 31 24z m-870 -20 c0 -2 -10 -12 -22 -23 l-23 -19
19 23 c18 21 26 27 26 19z m1130 0 c0 -2 -12 -14 -27 -28 l-28 -24 24 28 c23
25 31 32 31 24z m-1576 -46 c-2 -3 -12 3 -22 13 -16 17 -16 18 5 5 12 -7 20
-15 17 -18z m74 -8 c-10 -2 -28 -2 -40 0 -13 2 -5 4 17 4 22 1 32 -1 23 -4z
m185 0 c-7 -2 -19 -2 -25 0 -7 3 -2 5 12 5 14 0 19 -2 13 -5z" />
        <path
            d="M483 2185 c-107 -29 -207 -97 -238 -161 -24 -52 -17 -132 17 -176 32
-42 113 -86 196 -108 l65 -17 91 91 c110 110 207 168 373 222 l114 38 -48 24
c-175 89 -422 127 -570 87z" />
        <path
            d="M1074 2040 c-133 -46 -243 -117 -354 -230 l-85 -85 47 -3 c62 -4 203
21 309 54 89 27 260 106 278 128 8 9 -2 25 -37 62 -26 27 -61 59 -77 71 -30
21 -31 21 -81 3z" />
        <path
            d="M3810 1640 c0 -6 11 -16 25 -22 16 -7 25 -19 25 -35 0 -22 4 -23 60
-23 56 0 60 2 60 23 0 13 9 26 22 32 12 6 23 16 26 23 3 9 -23 12 -107 12 -69
0 -111 -4 -111 -10z" />
        <path
            d="M3695 1515 c-133 -37 -299 -150 -400 -272 -58 -70 -130 -204 -141
-260 l-6 -33 129 0 130 0 18 65 c49 182 183 365 348 475 l59 40 -43 -1 c-24 0
-66 -7 -94 -14z" />
        <path
            d="M4220 1447 c93 -77 160 -167 233 -312 45 -91 91 -224 103 -302 l7
-43 74 0 75 0 -7 33 c-18 82 -71 230 -113 312 -62 122 -181 242 -297 302 -120
61 -140 64 -75 10z" />
        <path
            d="M3137 859 c-4 -29 -5 -55 -3 -58 2 -3 63 -5 135 -3 l131 3 0 55 0 54
-129 0 -128 0 -6 -51z" />
        <path
            d="M3495 711 c-15 -26 42 -31 287 -29 217 3 253 5 253 18 0 13 -37 15
-267 18 -164 1 -269 -1 -273 -7z" />
        <path
            d="M1520 1561 c-73 -39 -206 -207 -232 -293 -15 -51 1 -88 38 -88 36 0
132 99 211 217 65 98 83 144 63 168 -16 20 -37 18 -80 -4z" />
    </g>
</svg>